<mxfile host="app.diagrams.net" modified="2023-11-15T14:41:16.717Z" agent="Mozilla/5.0 (Windows NT 10.0; Win64; x64) AppleWebKit/537.36 (KHTML, like Gecko) Chrome/119.0.0.0 Safari/537.36" etag="NR7QgVy9TbxYyyq6ijEL" version="22.1.0" type="device">
  <diagram name="Page-1" id="58cdce13-f638-feb5-8d6f-7d28b1aa9fa0">
    <mxGraphModel dx="1235" dy="1516" grid="1" gridSize="10" guides="1" tooltips="1" connect="1" arrows="1" fold="1" page="1" pageScale="1" pageWidth="1100" pageHeight="850" background="none" math="0" shadow="0">
      <root>
        <mxCell id="0" />
        <mxCell id="1" parent="0" />
        <mxCell id="T1-C6O5CW9eP6GTpHd8Y-236" value="" style="rounded=1;whiteSpace=wrap;html=1;" vertex="1" parent="1">
          <mxGeometry x="120" y="2280" width="860" height="230" as="geometry" />
        </mxCell>
        <mxCell id="T1-C6O5CW9eP6GTpHd8Y-220" value="" style="rounded=1;whiteSpace=wrap;html=1;" vertex="1" parent="1">
          <mxGeometry x="125" y="2120" width="535" height="140" as="geometry" />
        </mxCell>
        <mxCell id="T1-C6O5CW9eP6GTpHd8Y-214" value="" style="rounded=1;whiteSpace=wrap;html=1;" vertex="1" parent="1">
          <mxGeometry x="90" y="1830" width="940" height="250" as="geometry" />
        </mxCell>
        <mxCell id="T1-C6O5CW9eP6GTpHd8Y-191" value="" style="rounded=1;whiteSpace=wrap;html=1;" vertex="1" parent="1">
          <mxGeometry x="90" y="1530" width="670" height="270" as="geometry" />
        </mxCell>
        <mxCell id="T1-C6O5CW9eP6GTpHd8Y-172" value="" style="rounded=1;whiteSpace=wrap;html=1;" vertex="1" parent="1">
          <mxGeometry x="90" y="1260" width="750" height="220" as="geometry" />
        </mxCell>
        <mxCell id="382b91b5511bd0f7-1" value="" style="ellipse;html=1;shape=startState;fillColor=#000000;strokeColor=#ff0000;rounded=1;shadow=0;comic=0;labelBackgroundColor=none;fontFamily=Verdana;fontSize=12;fontColor=#000000;align=center;direction=south;" parent="1" vertex="1">
          <mxGeometry x="500" y="-80" width="30" height="30" as="geometry" />
        </mxCell>
        <mxCell id="T1-C6O5CW9eP6GTpHd8Y-1" value="Зайти в приложение" style="rounded=1;whiteSpace=wrap;html=1;" vertex="1" parent="1">
          <mxGeometry x="455" y="-30" width="120" height="60" as="geometry" />
        </mxCell>
        <mxCell id="T1-C6O5CW9eP6GTpHd8Y-2" value="" style="endArrow=classic;html=1;rounded=0;entryX=0.5;entryY=0;entryDx=0;entryDy=0;exitX=1;exitY=0.5;exitDx=0;exitDy=0;" edge="1" parent="1" source="382b91b5511bd0f7-1" target="T1-C6O5CW9eP6GTpHd8Y-1">
          <mxGeometry width="50" height="50" relative="1" as="geometry">
            <mxPoint x="515" y="90" as="sourcePoint" />
            <mxPoint x="620" y="-30" as="targetPoint" />
            <Array as="points" />
          </mxGeometry>
        </mxCell>
        <mxCell id="T1-C6O5CW9eP6GTpHd8Y-4" value="" style="line;strokeWidth=6;fillColor=none;align=left;verticalAlign=middle;spacingTop=-1;spacingLeft=3;spacingRight=3;rotatable=0;labelPosition=right;points=[];portConstraint=eastwest;strokeColor=inherit;" vertex="1" parent="1">
          <mxGeometry x="461.25" y="140" width="107.5" height="30" as="geometry" />
        </mxCell>
        <mxCell id="T1-C6O5CW9eP6GTpHd8Y-5" value="" style="endArrow=classic;html=1;rounded=0;exitX=0.5;exitY=1;exitDx=0;exitDy=0;entryX=0.5;entryY=0;entryDx=0;entryDy=0;" edge="1" parent="1" source="T1-C6O5CW9eP6GTpHd8Y-1" target="T1-C6O5CW9eP6GTpHd8Y-102">
          <mxGeometry width="50" height="50" relative="1" as="geometry">
            <mxPoint x="515" y="190" as="sourcePoint" />
            <mxPoint x="640" y="40" as="targetPoint" />
          </mxGeometry>
        </mxCell>
        <mxCell id="T1-C6O5CW9eP6GTpHd8Y-7" value="Выбрать трек из избранного?" style="rhombus;whiteSpace=wrap;html=1;" vertex="1" parent="1">
          <mxGeometry x="300" y="200" width="110" height="110" as="geometry" />
        </mxCell>
        <mxCell id="T1-C6O5CW9eP6GTpHd8Y-8" value="Прослушивание трека &lt;br&gt;из избранного" style="rounded=1;whiteSpace=wrap;html=1;" vertex="1" parent="1">
          <mxGeometry x="448" y="225" width="225" height="60" as="geometry" />
        </mxCell>
        <mxCell id="T1-C6O5CW9eP6GTpHd8Y-9" value="Выбрать трек из плейлиста?" style="rhombus;whiteSpace=wrap;html=1;strokeColor=#000000;" vertex="1" parent="1">
          <mxGeometry x="298.5" y="340" width="115" height="105" as="geometry" />
        </mxCell>
        <mxCell id="T1-C6O5CW9eP6GTpHd8Y-12" value="" style="endArrow=none;html=1;rounded=0;" edge="1" parent="1">
          <mxGeometry width="50" height="50" relative="1" as="geometry">
            <mxPoint x="640" y="255" as="sourcePoint" />
            <mxPoint x="640" y="235" as="targetPoint" />
          </mxGeometry>
        </mxCell>
        <mxCell id="T1-C6O5CW9eP6GTpHd8Y-13" value="" style="endArrow=none;html=1;rounded=0;" edge="1" parent="1">
          <mxGeometry width="50" height="50" relative="1" as="geometry">
            <mxPoint x="620" y="255" as="sourcePoint" />
            <mxPoint x="660" y="255" as="targetPoint" />
          </mxGeometry>
        </mxCell>
        <mxCell id="T1-C6O5CW9eP6GTpHd8Y-14" value="" style="endArrow=none;html=1;rounded=0;" edge="1" parent="1">
          <mxGeometry width="50" height="50" relative="1" as="geometry">
            <mxPoint x="620" y="275" as="sourcePoint" />
            <mxPoint x="620" y="255" as="targetPoint" />
            <Array as="points">
              <mxPoint x="620" y="255" />
            </Array>
          </mxGeometry>
        </mxCell>
        <mxCell id="T1-C6O5CW9eP6GTpHd8Y-15" value="" style="endArrow=none;html=1;rounded=0;" edge="1" parent="1">
          <mxGeometry width="50" height="50" relative="1" as="geometry">
            <mxPoint x="640" y="275" as="sourcePoint" />
            <mxPoint x="640" y="255" as="targetPoint" />
          </mxGeometry>
        </mxCell>
        <mxCell id="T1-C6O5CW9eP6GTpHd8Y-16" value="" style="endArrow=none;html=1;rounded=0;" edge="1" parent="1">
          <mxGeometry width="50" height="50" relative="1" as="geometry">
            <mxPoint x="660" y="275" as="sourcePoint" />
            <mxPoint x="660" y="255" as="targetPoint" />
          </mxGeometry>
        </mxCell>
        <mxCell id="T1-C6O5CW9eP6GTpHd8Y-22" value="Прослушать трек &lt;br&gt;из плейлиста" style="rounded=1;whiteSpace=wrap;html=1;" vertex="1" parent="1">
          <mxGeometry x="448" y="359" width="232" height="67" as="geometry" />
        </mxCell>
        <mxCell id="T1-C6O5CW9eP6GTpHd8Y-17" value="" style="endArrow=none;html=1;rounded=0;" edge="1" parent="1">
          <mxGeometry width="50" height="50" relative="1" as="geometry">
            <mxPoint x="652.17" y="390" as="sourcePoint" />
            <mxPoint x="652.17" y="370" as="targetPoint" />
          </mxGeometry>
        </mxCell>
        <mxCell id="T1-C6O5CW9eP6GTpHd8Y-18" value="" style="endArrow=none;html=1;rounded=0;" edge="1" parent="1">
          <mxGeometry width="50" height="50" relative="1" as="geometry">
            <mxPoint x="632.17" y="390" as="sourcePoint" />
            <mxPoint x="672.17" y="390" as="targetPoint" />
          </mxGeometry>
        </mxCell>
        <mxCell id="T1-C6O5CW9eP6GTpHd8Y-19" value="" style="endArrow=none;html=1;rounded=0;" edge="1" parent="1">
          <mxGeometry width="50" height="50" relative="1" as="geometry">
            <mxPoint x="632.17" y="410" as="sourcePoint" />
            <mxPoint x="632.17" y="390" as="targetPoint" />
            <Array as="points">
              <mxPoint x="632.17" y="390" />
            </Array>
          </mxGeometry>
        </mxCell>
        <mxCell id="T1-C6O5CW9eP6GTpHd8Y-20" value="" style="endArrow=none;html=1;rounded=0;" edge="1" parent="1">
          <mxGeometry width="50" height="50" relative="1" as="geometry">
            <mxPoint x="652.17" y="410" as="sourcePoint" />
            <mxPoint x="652.17" y="390" as="targetPoint" />
          </mxGeometry>
        </mxCell>
        <mxCell id="T1-C6O5CW9eP6GTpHd8Y-21" value="" style="endArrow=none;html=1;rounded=0;" edge="1" parent="1">
          <mxGeometry width="50" height="50" relative="1" as="geometry">
            <mxPoint x="673" y="410" as="sourcePoint" />
            <mxPoint x="673" y="390" as="targetPoint" />
          </mxGeometry>
        </mxCell>
        <mxCell id="T1-C6O5CW9eP6GTpHd8Y-23" value="" style="endArrow=classic;html=1;rounded=0;exitX=0.183;exitY=0.578;exitDx=0;exitDy=0;exitPerimeter=0;entryX=0.5;entryY=0;entryDx=0;entryDy=0;" edge="1" parent="1" source="T1-C6O5CW9eP6GTpHd8Y-4" target="T1-C6O5CW9eP6GTpHd8Y-7">
          <mxGeometry width="50" height="50" relative="1" as="geometry">
            <mxPoint x="440" y="260" as="sourcePoint" />
            <mxPoint x="490" y="210" as="targetPoint" />
            <Array as="points">
              <mxPoint x="480" y="180" />
              <mxPoint x="420" y="180" />
              <mxPoint x="355" y="180" />
            </Array>
          </mxGeometry>
        </mxCell>
        <mxCell id="T1-C6O5CW9eP6GTpHd8Y-24" value="Прослушивание музыки" style="text;html=1;strokeColor=none;fillColor=none;align=center;verticalAlign=middle;whiteSpace=wrap;rounded=0;" vertex="1" parent="1">
          <mxGeometry x="320" y="150" width="180" height="30" as="geometry" />
        </mxCell>
        <mxCell id="T1-C6O5CW9eP6GTpHd8Y-25" value="" style="endArrow=classic;html=1;rounded=0;entryX=0;entryY=0.5;entryDx=0;entryDy=0;" edge="1" parent="1" source="T1-C6O5CW9eP6GTpHd8Y-7" target="T1-C6O5CW9eP6GTpHd8Y-8">
          <mxGeometry width="50" height="50" relative="1" as="geometry">
            <mxPoint x="410" y="345" as="sourcePoint" />
            <mxPoint x="480.71067811865476" y="295" as="targetPoint" />
          </mxGeometry>
        </mxCell>
        <mxCell id="T1-C6O5CW9eP6GTpHd8Y-26" value="" style="endArrow=classic;html=1;rounded=0;entryX=0.5;entryY=0;entryDx=0;entryDy=0;" edge="1" parent="1" source="T1-C6O5CW9eP6GTpHd8Y-7" target="T1-C6O5CW9eP6GTpHd8Y-9">
          <mxGeometry width="50" height="50" relative="1" as="geometry">
            <mxPoint x="355" y="400" as="sourcePoint" />
            <mxPoint x="355" y="420.71067811865476" as="targetPoint" />
          </mxGeometry>
        </mxCell>
        <mxCell id="T1-C6O5CW9eP6GTpHd8Y-27" value="" style="endArrow=classic;html=1;rounded=0;exitX=0.5;exitY=1;exitDx=0;exitDy=0;entryX=0.5;entryY=0;entryDx=0;entryDy=0;" edge="1" parent="1" source="T1-C6O5CW9eP6GTpHd8Y-8" target="T1-C6O5CW9eP6GTpHd8Y-9">
          <mxGeometry width="50" height="50" relative="1" as="geometry">
            <mxPoint x="540" y="410" as="sourcePoint" />
            <mxPoint x="350" y="370" as="targetPoint" />
            <Array as="points">
              <mxPoint x="560" y="340" />
            </Array>
          </mxGeometry>
        </mxCell>
        <mxCell id="T1-C6O5CW9eP6GTpHd8Y-28" value="да" style="text;html=1;strokeColor=none;fillColor=none;align=center;verticalAlign=middle;whiteSpace=wrap;rounded=0;" vertex="1" parent="1">
          <mxGeometry x="408" y="230" width="40" height="20" as="geometry" />
        </mxCell>
        <mxCell id="T1-C6O5CW9eP6GTpHd8Y-29" value="нет" style="text;html=1;strokeColor=none;fillColor=none;align=center;verticalAlign=middle;whiteSpace=wrap;rounded=0;" vertex="1" parent="1">
          <mxGeometry x="310" y="310" width="50" height="20" as="geometry" />
        </mxCell>
        <mxCell id="T1-C6O5CW9eP6GTpHd8Y-30" value="" style="endArrow=classic;html=1;rounded=0;entryX=0;entryY=0.5;entryDx=0;entryDy=0;" edge="1" parent="1" source="T1-C6O5CW9eP6GTpHd8Y-9" target="T1-C6O5CW9eP6GTpHd8Y-22">
          <mxGeometry width="50" height="50" relative="1" as="geometry">
            <mxPoint x="412.5" y="486.5" as="sourcePoint" />
            <mxPoint x="450" y="437" as="targetPoint" />
          </mxGeometry>
        </mxCell>
        <mxCell id="T1-C6O5CW9eP6GTpHd8Y-31" value="Выбрать трек из поиска?" style="rhombus;whiteSpace=wrap;html=1;" vertex="1" parent="1">
          <mxGeometry x="302" y="470" width="110" height="100" as="geometry" />
        </mxCell>
        <mxCell id="T1-C6O5CW9eP6GTpHd8Y-32" value="" style="endArrow=classic;html=1;rounded=0;entryX=0.5;entryY=0;entryDx=0;entryDy=0;" edge="1" parent="1" source="T1-C6O5CW9eP6GTpHd8Y-9" target="T1-C6O5CW9eP6GTpHd8Y-31">
          <mxGeometry width="50" height="50" relative="1" as="geometry">
            <mxPoint x="355" y="539" as="sourcePoint" />
            <mxPoint x="355" y="559.7106781186548" as="targetPoint" />
          </mxGeometry>
        </mxCell>
        <mxCell id="T1-C6O5CW9eP6GTpHd8Y-33" value="продолжать слушать музыку?" style="rhombus;whiteSpace=wrap;html=1;" vertex="1" parent="1">
          <mxGeometry x="301.5" y="590" width="118.5" height="100" as="geometry" />
        </mxCell>
        <mxCell id="T1-C6O5CW9eP6GTpHd8Y-34" value="" style="endArrow=classic;html=1;rounded=0;entryX=0.5;entryY=0;entryDx=0;entryDy=0;" edge="1" parent="1" source="T1-C6O5CW9eP6GTpHd8Y-31" target="T1-C6O5CW9eP6GTpHd8Y-33">
          <mxGeometry width="50" height="50" relative="1" as="geometry">
            <mxPoint x="355" y="670" as="sourcePoint" />
            <mxPoint x="355" y="690.7106781186548" as="targetPoint" />
          </mxGeometry>
        </mxCell>
        <mxCell id="T1-C6O5CW9eP6GTpHd8Y-35" value="" style="endArrow=classic;html=1;rounded=0;exitX=0;exitY=0.5;exitDx=0;exitDy=0;entryX=0;entryY=0.5;entryDx=0;entryDy=0;" edge="1" parent="1" source="T1-C6O5CW9eP6GTpHd8Y-33" target="T1-C6O5CW9eP6GTpHd8Y-7">
          <mxGeometry width="50" height="50" relative="1" as="geometry">
            <mxPoint x="300" y="690" as="sourcePoint" />
            <mxPoint x="290" y="650" as="targetPoint" />
            <Array as="points">
              <mxPoint x="270" y="640" />
              <mxPoint x="270" y="255" />
            </Array>
          </mxGeometry>
        </mxCell>
        <mxCell id="T1-C6O5CW9eP6GTpHd8Y-36" value="да" style="text;html=1;strokeColor=none;fillColor=none;align=center;verticalAlign=middle;whiteSpace=wrap;rounded=0;" vertex="1" parent="1">
          <mxGeometry x="220" y="440" width="60" height="30" as="geometry" />
        </mxCell>
        <mxCell id="T1-C6O5CW9eP6GTpHd8Y-39" value="нет" style="text;html=1;strokeColor=none;fillColor=none;align=center;verticalAlign=middle;whiteSpace=wrap;rounded=0;" vertex="1" parent="1">
          <mxGeometry x="305" y="440" width="60" height="30" as="geometry" />
        </mxCell>
        <mxCell id="T1-C6O5CW9eP6GTpHd8Y-40" value="нет" style="text;html=1;strokeColor=none;fillColor=none;align=center;verticalAlign=middle;whiteSpace=wrap;rounded=0;" vertex="1" parent="1">
          <mxGeometry x="310" y="560" width="60" height="30" as="geometry" />
        </mxCell>
        <mxCell id="T1-C6O5CW9eP6GTpHd8Y-41" value="Прослушивание трека &lt;br&gt;из поиска" style="rounded=1;whiteSpace=wrap;html=1;" vertex="1" parent="1">
          <mxGeometry x="450" y="480" width="230" height="70" as="geometry" />
        </mxCell>
        <mxCell id="T1-C6O5CW9eP6GTpHd8Y-42" value="" style="endArrow=none;html=1;rounded=0;" edge="1" parent="1">
          <mxGeometry width="50" height="50" relative="1" as="geometry">
            <mxPoint x="652.17" y="515" as="sourcePoint" />
            <mxPoint x="652.17" y="495" as="targetPoint" />
          </mxGeometry>
        </mxCell>
        <mxCell id="T1-C6O5CW9eP6GTpHd8Y-43" value="" style="endArrow=none;html=1;rounded=0;" edge="1" parent="1">
          <mxGeometry width="50" height="50" relative="1" as="geometry">
            <mxPoint x="632.17" y="515" as="sourcePoint" />
            <mxPoint x="672.17" y="515" as="targetPoint" />
          </mxGeometry>
        </mxCell>
        <mxCell id="T1-C6O5CW9eP6GTpHd8Y-44" value="" style="endArrow=none;html=1;rounded=0;" edge="1" parent="1">
          <mxGeometry width="50" height="50" relative="1" as="geometry">
            <mxPoint x="632.17" y="535" as="sourcePoint" />
            <mxPoint x="632.17" y="515" as="targetPoint" />
            <Array as="points">
              <mxPoint x="632.17" y="515" />
            </Array>
          </mxGeometry>
        </mxCell>
        <mxCell id="T1-C6O5CW9eP6GTpHd8Y-45" value="" style="endArrow=none;html=1;rounded=0;" edge="1" parent="1">
          <mxGeometry width="50" height="50" relative="1" as="geometry">
            <mxPoint x="652.17" y="535" as="sourcePoint" />
            <mxPoint x="652.17" y="515" as="targetPoint" />
          </mxGeometry>
        </mxCell>
        <mxCell id="T1-C6O5CW9eP6GTpHd8Y-46" value="" style="endArrow=none;html=1;rounded=0;" edge="1" parent="1">
          <mxGeometry width="50" height="50" relative="1" as="geometry">
            <mxPoint x="672.17" y="535" as="sourcePoint" />
            <mxPoint x="672.17" y="515" as="targetPoint" />
          </mxGeometry>
        </mxCell>
        <mxCell id="T1-C6O5CW9eP6GTpHd8Y-92" value="" style="endArrow=classic;html=1;rounded=0;" edge="1" parent="1" source="T1-C6O5CW9eP6GTpHd8Y-31">
          <mxGeometry width="50" height="50" relative="1" as="geometry">
            <mxPoint x="412" y="570" as="sourcePoint" />
            <mxPoint x="450" y="520" as="targetPoint" />
          </mxGeometry>
        </mxCell>
        <mxCell id="T1-C6O5CW9eP6GTpHd8Y-93" value="да" style="text;html=1;strokeColor=none;fillColor=none;align=center;verticalAlign=middle;whiteSpace=wrap;rounded=0;" vertex="1" parent="1">
          <mxGeometry x="398" y="370" width="60" height="30" as="geometry" />
        </mxCell>
        <mxCell id="T1-C6O5CW9eP6GTpHd8Y-94" value="да" style="text;html=1;strokeColor=none;fillColor=none;align=center;verticalAlign=middle;whiteSpace=wrap;rounded=0;" vertex="1" parent="1">
          <mxGeometry x="398" y="490" width="60" height="30" as="geometry" />
        </mxCell>
        <mxCell id="T1-C6O5CW9eP6GTpHd8Y-96" value="Выйти из приложения?" style="rhombus;whiteSpace=wrap;html=1;" vertex="1" parent="1">
          <mxGeometry x="300" y="710" width="115.5" height="100" as="geometry" />
        </mxCell>
        <mxCell id="T1-C6O5CW9eP6GTpHd8Y-97" value="Выход из приложения" style="rounded=1;whiteSpace=wrap;html=1;" vertex="1" parent="1">
          <mxGeometry x="470" y="1110" width="120" height="60" as="geometry" />
        </mxCell>
        <mxCell id="T1-C6O5CW9eP6GTpHd8Y-98" value="" style="endArrow=classic;html=1;rounded=0;entryX=0.276;entryY=0.467;entryDx=0;entryDy=0;entryPerimeter=0;" edge="1" parent="1" source="T1-C6O5CW9eP6GTpHd8Y-96" target="T1-C6O5CW9eP6GTpHd8Y-107">
          <mxGeometry width="50" height="50" relative="1" as="geometry">
            <mxPoint x="357" y="850" as="sourcePoint" />
            <mxPoint x="350" y="920" as="targetPoint" />
            <Array as="points">
              <mxPoint x="360" y="1000" />
              <mxPoint x="500" y="1000" />
            </Array>
          </mxGeometry>
        </mxCell>
        <mxCell id="T1-C6O5CW9eP6GTpHd8Y-100" value="" style="endArrow=classic;html=1;rounded=0;entryX=0.5;entryY=0;entryDx=0;entryDy=0;" edge="1" parent="1" source="T1-C6O5CW9eP6GTpHd8Y-33" target="T1-C6O5CW9eP6GTpHd8Y-96">
          <mxGeometry width="50" height="50" relative="1" as="geometry">
            <mxPoint x="357.5" y="740" as="sourcePoint" />
            <mxPoint x="358" y="700" as="targetPoint" />
          </mxGeometry>
        </mxCell>
        <mxCell id="T1-C6O5CW9eP6GTpHd8Y-101" value="" style="endArrow=classic;html=1;rounded=0;exitX=0;exitY=0.5;exitDx=0;exitDy=0;entryX=0;entryY=0.5;entryDx=0;entryDy=0;" edge="1" parent="1" source="T1-C6O5CW9eP6GTpHd8Y-96" target="T1-C6O5CW9eP6GTpHd8Y-102">
          <mxGeometry width="50" height="50" relative="1" as="geometry">
            <mxPoint x="200" y="770" as="sourcePoint" />
            <mxPoint x="220" y="80" as="targetPoint" />
            <Array as="points">
              <mxPoint x="220" y="760" />
              <mxPoint x="220" y="90" />
            </Array>
          </mxGeometry>
        </mxCell>
        <mxCell id="T1-C6O5CW9eP6GTpHd8Y-102" value="Режим ожидания" style="rounded=1;whiteSpace=wrap;html=1;" vertex="1" parent="1">
          <mxGeometry x="455" y="60" width="120" height="60" as="geometry" />
        </mxCell>
        <mxCell id="T1-C6O5CW9eP6GTpHd8Y-103" value="нет" style="text;html=1;strokeColor=none;fillColor=none;align=center;verticalAlign=middle;whiteSpace=wrap;rounded=0;" vertex="1" parent="1">
          <mxGeometry x="230" y="730" width="60" height="30" as="geometry" />
        </mxCell>
        <mxCell id="T1-C6O5CW9eP6GTpHd8Y-104" value="нет" style="text;html=1;strokeColor=none;fillColor=none;align=center;verticalAlign=middle;whiteSpace=wrap;rounded=0;" vertex="1" parent="1">
          <mxGeometry x="310" y="680" width="60" height="30" as="geometry" />
        </mxCell>
        <mxCell id="T1-C6O5CW9eP6GTpHd8Y-105" value="да" style="text;html=1;strokeColor=none;fillColor=none;align=center;verticalAlign=middle;whiteSpace=wrap;rounded=0;" vertex="1" parent="1">
          <mxGeometry x="320" y="810" width="40" height="20" as="geometry" />
        </mxCell>
        <mxCell id="T1-C6O5CW9eP6GTpHd8Y-106" value="" style="endArrow=classic;html=1;rounded=0;exitX=0.5;exitY=1;exitDx=0;exitDy=0;entryX=0.494;entryY=0.489;entryDx=0;entryDy=0;entryPerimeter=0;" edge="1" parent="1" source="T1-C6O5CW9eP6GTpHd8Y-102" target="T1-C6O5CW9eP6GTpHd8Y-4">
          <mxGeometry width="50" height="50" relative="1" as="geometry">
            <mxPoint x="690" y="180" as="sourcePoint" />
            <mxPoint x="516" y="150" as="targetPoint" />
          </mxGeometry>
        </mxCell>
        <mxCell id="T1-C6O5CW9eP6GTpHd8Y-107" value="" style="line;strokeWidth=6;fillColor=none;align=left;verticalAlign=middle;spacingTop=-1;spacingLeft=3;spacingRight=3;rotatable=0;labelPosition=right;points=[];portConstraint=eastwest;strokeColor=inherit;" vertex="1" parent="1">
          <mxGeometry x="470" y="1040" width="107.5" height="30" as="geometry" />
        </mxCell>
        <mxCell id="T1-C6O5CW9eP6GTpHd8Y-108" value="" style="endArrow=classic;html=1;rounded=0;exitX=0.567;exitY=0.422;exitDx=0;exitDy=0;exitPerimeter=0;entryX=0.5;entryY=0;entryDx=0;entryDy=0;" edge="1" parent="1" source="T1-C6O5CW9eP6GTpHd8Y-107" target="T1-C6O5CW9eP6GTpHd8Y-97">
          <mxGeometry width="50" height="50" relative="1" as="geometry">
            <mxPoint x="390" y="1030" as="sourcePoint" />
            <mxPoint x="440" y="980" as="targetPoint" />
          </mxGeometry>
        </mxCell>
        <mxCell id="T1-C6O5CW9eP6GTpHd8Y-109" value="Изменить тему?" style="rhombus;whiteSpace=wrap;html=1;" vertex="1" parent="1">
          <mxGeometry x="730" y="205" width="120" height="95" as="geometry" />
        </mxCell>
        <mxCell id="T1-C6O5CW9eP6GTpHd8Y-110" value="Поделиться приложением?" style="rhombus;whiteSpace=wrap;html=1;" vertex="1" parent="1">
          <mxGeometry x="730" y="318" width="120" height="108" as="geometry" />
        </mxCell>
        <mxCell id="T1-C6O5CW9eP6GTpHd8Y-111" value="Написать в тех. поддержку?" style="rhombus;whiteSpace=wrap;html=1;" vertex="1" parent="1">
          <mxGeometry x="730" y="450" width="120" height="110" as="geometry" />
        </mxCell>
        <mxCell id="T1-C6O5CW9eP6GTpHd8Y-112" value="Прочитать пользовательское соглашение?" style="rhombus;whiteSpace=wrap;html=1;" vertex="1" parent="1">
          <mxGeometry x="735" y="580" width="110" height="100" as="geometry" />
        </mxCell>
        <mxCell id="T1-C6O5CW9eP6GTpHd8Y-113" value="" style="endArrow=classic;html=1;rounded=0;exitX=0.692;exitY=0.578;exitDx=0;exitDy=0;exitPerimeter=0;entryX=0.5;entryY=0;entryDx=0;entryDy=0;" edge="1" parent="1" source="T1-C6O5CW9eP6GTpHd8Y-4" target="T1-C6O5CW9eP6GTpHd8Y-109">
          <mxGeometry width="50" height="50" relative="1" as="geometry">
            <mxPoint x="650" y="190" as="sourcePoint" />
            <mxPoint x="700" y="140" as="targetPoint" />
            <Array as="points">
              <mxPoint x="536" y="180" />
              <mxPoint x="790" y="180" />
            </Array>
          </mxGeometry>
        </mxCell>
        <mxCell id="T1-C6O5CW9eP6GTpHd8Y-114" value="Настройки" style="text;html=1;strokeColor=none;fillColor=none;align=center;verticalAlign=middle;whiteSpace=wrap;rounded=0;" vertex="1" parent="1">
          <mxGeometry x="613" y="150" width="107" height="30" as="geometry" />
        </mxCell>
        <mxCell id="T1-C6O5CW9eP6GTpHd8Y-115" value="Выбрать тему" style="rounded=1;whiteSpace=wrap;html=1;" vertex="1" parent="1">
          <mxGeometry x="880" y="223" width="120" height="60" as="geometry" />
        </mxCell>
        <mxCell id="T1-C6O5CW9eP6GTpHd8Y-116" value="Поделиться &lt;br&gt;приложением" style="rounded=1;whiteSpace=wrap;html=1;" vertex="1" parent="1">
          <mxGeometry x="880" y="342" width="180" height="60" as="geometry" />
        </mxCell>
        <mxCell id="T1-C6O5CW9eP6GTpHd8Y-117" value="" style="endArrow=none;html=1;rounded=0;" edge="1" parent="1">
          <mxGeometry width="50" height="50" relative="1" as="geometry">
            <mxPoint x="1030" y="370" as="sourcePoint" />
            <mxPoint x="1030" y="350" as="targetPoint" />
          </mxGeometry>
        </mxCell>
        <mxCell id="T1-C6O5CW9eP6GTpHd8Y-118" value="" style="endArrow=none;html=1;rounded=0;" edge="1" parent="1">
          <mxGeometry width="50" height="50" relative="1" as="geometry">
            <mxPoint x="1010" y="370" as="sourcePoint" />
            <mxPoint x="1050" y="370" as="targetPoint" />
          </mxGeometry>
        </mxCell>
        <mxCell id="T1-C6O5CW9eP6GTpHd8Y-119" value="" style="endArrow=none;html=1;rounded=0;" edge="1" parent="1">
          <mxGeometry width="50" height="50" relative="1" as="geometry">
            <mxPoint x="1010" y="390" as="sourcePoint" />
            <mxPoint x="1010" y="370" as="targetPoint" />
            <Array as="points">
              <mxPoint x="1010" y="370" />
            </Array>
          </mxGeometry>
        </mxCell>
        <mxCell id="T1-C6O5CW9eP6GTpHd8Y-120" value="" style="endArrow=none;html=1;rounded=0;" edge="1" parent="1">
          <mxGeometry width="50" height="50" relative="1" as="geometry">
            <mxPoint x="1030" y="390" as="sourcePoint" />
            <mxPoint x="1030" y="370" as="targetPoint" />
          </mxGeometry>
        </mxCell>
        <mxCell id="T1-C6O5CW9eP6GTpHd8Y-121" value="" style="endArrow=none;html=1;rounded=0;" edge="1" parent="1">
          <mxGeometry width="50" height="50" relative="1" as="geometry">
            <mxPoint x="1050" y="390" as="sourcePoint" />
            <mxPoint x="1050" y="370" as="targetPoint" />
          </mxGeometry>
        </mxCell>
        <mxCell id="T1-C6O5CW9eP6GTpHd8Y-122" value="Письмо в тех. &lt;br&gt;поддержку" style="rounded=1;whiteSpace=wrap;html=1;" vertex="1" parent="1">
          <mxGeometry x="880" y="475" width="180" height="60" as="geometry" />
        </mxCell>
        <mxCell id="T1-C6O5CW9eP6GTpHd8Y-123" value="" style="endArrow=none;html=1;rounded=0;" edge="1" parent="1">
          <mxGeometry width="50" height="50" relative="1" as="geometry">
            <mxPoint x="1030" y="505" as="sourcePoint" />
            <mxPoint x="1030" y="485" as="targetPoint" />
          </mxGeometry>
        </mxCell>
        <mxCell id="T1-C6O5CW9eP6GTpHd8Y-124" value="" style="endArrow=none;html=1;rounded=0;" edge="1" parent="1">
          <mxGeometry width="50" height="50" relative="1" as="geometry">
            <mxPoint x="1010" y="505" as="sourcePoint" />
            <mxPoint x="1050" y="505" as="targetPoint" />
          </mxGeometry>
        </mxCell>
        <mxCell id="T1-C6O5CW9eP6GTpHd8Y-125" value="" style="endArrow=none;html=1;rounded=0;" edge="1" parent="1">
          <mxGeometry width="50" height="50" relative="1" as="geometry">
            <mxPoint x="1010" y="525" as="sourcePoint" />
            <mxPoint x="1010" y="505" as="targetPoint" />
            <Array as="points">
              <mxPoint x="1010" y="505" />
            </Array>
          </mxGeometry>
        </mxCell>
        <mxCell id="T1-C6O5CW9eP6GTpHd8Y-126" value="" style="endArrow=none;html=1;rounded=0;" edge="1" parent="1">
          <mxGeometry width="50" height="50" relative="1" as="geometry">
            <mxPoint x="1030" y="525" as="sourcePoint" />
            <mxPoint x="1030" y="505" as="targetPoint" />
          </mxGeometry>
        </mxCell>
        <mxCell id="T1-C6O5CW9eP6GTpHd8Y-127" value="" style="endArrow=none;html=1;rounded=0;" edge="1" parent="1">
          <mxGeometry width="50" height="50" relative="1" as="geometry">
            <mxPoint x="1050" y="525" as="sourcePoint" />
            <mxPoint x="1050" y="505" as="targetPoint" />
          </mxGeometry>
        </mxCell>
        <mxCell id="T1-C6O5CW9eP6GTpHd8Y-128" value="Прочитать пользовательское соглашение" style="rounded=1;whiteSpace=wrap;html=1;" vertex="1" parent="1">
          <mxGeometry x="880" y="600" width="170" height="60" as="geometry" />
        </mxCell>
        <mxCell id="T1-C6O5CW9eP6GTpHd8Y-129" value="Продолжить смотреть настройки?" style="rhombus;whiteSpace=wrap;html=1;" vertex="1" parent="1">
          <mxGeometry x="735" y="700" width="110" height="100" as="geometry" />
        </mxCell>
        <mxCell id="T1-C6O5CW9eP6GTpHd8Y-130" value="Выйти из приложения?" style="rhombus;whiteSpace=wrap;html=1;" vertex="1" parent="1">
          <mxGeometry x="725" y="820" width="130" height="120" as="geometry" />
        </mxCell>
        <mxCell id="T1-C6O5CW9eP6GTpHd8Y-131" value="" style="endArrow=classic;html=1;rounded=0;exitX=0.5;exitY=1;exitDx=0;exitDy=0;entryX=0.729;entryY=0.378;entryDx=0;entryDy=0;entryPerimeter=0;" edge="1" parent="1" source="T1-C6O5CW9eP6GTpHd8Y-130" target="T1-C6O5CW9eP6GTpHd8Y-107">
          <mxGeometry width="50" height="50" relative="1" as="geometry">
            <mxPoint x="720" y="1070" as="sourcePoint" />
            <mxPoint x="770" y="1020" as="targetPoint" />
            <Array as="points">
              <mxPoint x="790" y="1000" />
              <mxPoint x="548" y="1000" />
            </Array>
          </mxGeometry>
        </mxCell>
        <mxCell id="T1-C6O5CW9eP6GTpHd8Y-132" value="" style="endArrow=classic;html=1;rounded=0;exitX=0.5;exitY=1;exitDx=0;exitDy=0;entryX=0.5;entryY=0;entryDx=0;entryDy=0;" edge="1" parent="1" source="T1-C6O5CW9eP6GTpHd8Y-109" target="T1-C6O5CW9eP6GTpHd8Y-110">
          <mxGeometry width="50" height="50" relative="1" as="geometry">
            <mxPoint x="690" y="350" as="sourcePoint" />
            <mxPoint x="740" y="300" as="targetPoint" />
          </mxGeometry>
        </mxCell>
        <mxCell id="T1-C6O5CW9eP6GTpHd8Y-133" value="" style="endArrow=classic;html=1;rounded=0;exitX=1;exitY=0.5;exitDx=0;exitDy=0;entryX=0;entryY=0.5;entryDx=0;entryDy=0;" edge="1" parent="1" source="T1-C6O5CW9eP6GTpHd8Y-109" target="T1-C6O5CW9eP6GTpHd8Y-115">
          <mxGeometry width="50" height="50" relative="1" as="geometry">
            <mxPoint x="860" y="350" as="sourcePoint" />
            <mxPoint x="910" y="300" as="targetPoint" />
          </mxGeometry>
        </mxCell>
        <mxCell id="T1-C6O5CW9eP6GTpHd8Y-134" value="" style="endArrow=classic;html=1;rounded=0;exitX=0.5;exitY=1;exitDx=0;exitDy=0;entryX=0.5;entryY=0;entryDx=0;entryDy=0;" edge="1" parent="1" source="T1-C6O5CW9eP6GTpHd8Y-115" target="T1-C6O5CW9eP6GTpHd8Y-110">
          <mxGeometry width="50" height="50" relative="1" as="geometry">
            <mxPoint x="830" y="360" as="sourcePoint" />
            <mxPoint x="880" y="310" as="targetPoint" />
            <Array as="points">
              <mxPoint x="940" y="320" />
            </Array>
          </mxGeometry>
        </mxCell>
        <mxCell id="T1-C6O5CW9eP6GTpHd8Y-135" value="" style="endArrow=classic;html=1;rounded=0;exitX=0.5;exitY=1;exitDx=0;exitDy=0;entryX=0.5;entryY=0;entryDx=0;entryDy=0;" edge="1" parent="1" source="T1-C6O5CW9eP6GTpHd8Y-110" target="T1-C6O5CW9eP6GTpHd8Y-111">
          <mxGeometry width="50" height="50" relative="1" as="geometry">
            <mxPoint x="720" y="480" as="sourcePoint" />
            <mxPoint x="770" y="430" as="targetPoint" />
          </mxGeometry>
        </mxCell>
        <mxCell id="T1-C6O5CW9eP6GTpHd8Y-136" value="" style="endArrow=classic;html=1;rounded=0;exitX=0.5;exitY=1;exitDx=0;exitDy=0;entryX=0.5;entryY=0;entryDx=0;entryDy=0;" edge="1" parent="1" source="T1-C6O5CW9eP6GTpHd8Y-111" target="T1-C6O5CW9eP6GTpHd8Y-112">
          <mxGeometry width="50" height="50" relative="1" as="geometry">
            <mxPoint x="710" y="610" as="sourcePoint" />
            <mxPoint x="760" y="560" as="targetPoint" />
          </mxGeometry>
        </mxCell>
        <mxCell id="T1-C6O5CW9eP6GTpHd8Y-137" value="" style="endArrow=classic;html=1;rounded=0;exitX=0.5;exitY=1;exitDx=0;exitDy=0;entryX=0.5;entryY=0;entryDx=0;entryDy=0;" edge="1" parent="1" source="T1-C6O5CW9eP6GTpHd8Y-112" target="T1-C6O5CW9eP6GTpHd8Y-129">
          <mxGeometry width="50" height="50" relative="1" as="geometry">
            <mxPoint x="660" y="740" as="sourcePoint" />
            <mxPoint x="710" y="690" as="targetPoint" />
          </mxGeometry>
        </mxCell>
        <mxCell id="T1-C6O5CW9eP6GTpHd8Y-138" value="" style="endArrow=classic;html=1;rounded=0;exitX=1;exitY=0.5;exitDx=0;exitDy=0;entryX=0;entryY=0.5;entryDx=0;entryDy=0;" edge="1" parent="1" source="T1-C6O5CW9eP6GTpHd8Y-110" target="T1-C6O5CW9eP6GTpHd8Y-116">
          <mxGeometry width="50" height="50" relative="1" as="geometry">
            <mxPoint x="850" y="480" as="sourcePoint" />
            <mxPoint x="900" y="430" as="targetPoint" />
          </mxGeometry>
        </mxCell>
        <mxCell id="T1-C6O5CW9eP6GTpHd8Y-139" value="" style="endArrow=classic;html=1;rounded=0;exitX=1;exitY=0.5;exitDx=0;exitDy=0;entryX=0;entryY=0.5;entryDx=0;entryDy=0;" edge="1" parent="1" source="T1-C6O5CW9eP6GTpHd8Y-111" target="T1-C6O5CW9eP6GTpHd8Y-122">
          <mxGeometry width="50" height="50" relative="1" as="geometry">
            <mxPoint x="840" y="600" as="sourcePoint" />
            <mxPoint x="890" y="550" as="targetPoint" />
          </mxGeometry>
        </mxCell>
        <mxCell id="T1-C6O5CW9eP6GTpHd8Y-140" value="" style="endArrow=classic;html=1;rounded=0;exitX=1;exitY=0.5;exitDx=0;exitDy=0;" edge="1" parent="1" source="T1-C6O5CW9eP6GTpHd8Y-112">
          <mxGeometry width="50" height="50" relative="1" as="geometry">
            <mxPoint x="850" y="620" as="sourcePoint" />
            <mxPoint x="880" y="630" as="targetPoint" />
          </mxGeometry>
        </mxCell>
        <mxCell id="T1-C6O5CW9eP6GTpHd8Y-141" value="" style="endArrow=classic;html=1;rounded=0;exitX=0.5;exitY=1;exitDx=0;exitDy=0;" edge="1" parent="1" source="T1-C6O5CW9eP6GTpHd8Y-116">
          <mxGeometry width="50" height="50" relative="1" as="geometry">
            <mxPoint x="880" y="480" as="sourcePoint" />
            <mxPoint x="790" y="450" as="targetPoint" />
            <Array as="points">
              <mxPoint x="970" y="450" />
            </Array>
          </mxGeometry>
        </mxCell>
        <mxCell id="T1-C6O5CW9eP6GTpHd8Y-142" value="" style="endArrow=classic;html=1;rounded=0;entryX=0.5;entryY=0;entryDx=0;entryDy=0;exitX=0.5;exitY=1;exitDx=0;exitDy=0;" edge="1" parent="1" source="T1-C6O5CW9eP6GTpHd8Y-122" target="T1-C6O5CW9eP6GTpHd8Y-112">
          <mxGeometry width="50" height="50" relative="1" as="geometry">
            <mxPoint x="870" y="600" as="sourcePoint" />
            <mxPoint x="920" y="550" as="targetPoint" />
            <Array as="points">
              <mxPoint x="970" y="580" />
            </Array>
          </mxGeometry>
        </mxCell>
        <mxCell id="T1-C6O5CW9eP6GTpHd8Y-143" value="" style="endArrow=classic;html=1;rounded=0;exitX=0.5;exitY=1;exitDx=0;exitDy=0;entryX=0.5;entryY=0;entryDx=0;entryDy=0;" edge="1" parent="1" source="T1-C6O5CW9eP6GTpHd8Y-128" target="T1-C6O5CW9eP6GTpHd8Y-129">
          <mxGeometry width="50" height="50" relative="1" as="geometry">
            <mxPoint x="910" y="800" as="sourcePoint" />
            <mxPoint x="960" y="750" as="targetPoint" />
            <Array as="points">
              <mxPoint x="965" y="700" />
            </Array>
          </mxGeometry>
        </mxCell>
        <mxCell id="T1-C6O5CW9eP6GTpHd8Y-144" value="" style="endArrow=classic;html=1;rounded=0;exitX=0.5;exitY=1;exitDx=0;exitDy=0;entryX=0.5;entryY=0;entryDx=0;entryDy=0;" edge="1" parent="1" source="T1-C6O5CW9eP6GTpHd8Y-129" target="T1-C6O5CW9eP6GTpHd8Y-130">
          <mxGeometry width="50" height="50" relative="1" as="geometry">
            <mxPoint x="660" y="850" as="sourcePoint" />
            <mxPoint x="710" y="800" as="targetPoint" />
          </mxGeometry>
        </mxCell>
        <mxCell id="T1-C6O5CW9eP6GTpHd8Y-145" value="" style="endArrow=classic;html=1;rounded=0;exitX=1;exitY=0.5;exitDx=0;exitDy=0;entryX=1;entryY=0;entryDx=0;entryDy=0;" edge="1" parent="1" source="T1-C6O5CW9eP6GTpHd8Y-129" target="T1-C6O5CW9eP6GTpHd8Y-109">
          <mxGeometry width="50" height="50" relative="1" as="geometry">
            <mxPoint x="910" y="820" as="sourcePoint" />
            <mxPoint x="1070" y="80" as="targetPoint" />
            <Array as="points">
              <mxPoint x="1070" y="750" />
              <mxPoint x="1070" y="180" />
              <mxPoint x="820" y="180" />
            </Array>
          </mxGeometry>
        </mxCell>
        <mxCell id="T1-C6O5CW9eP6GTpHd8Y-146" value="" style="endArrow=classic;html=1;rounded=0;exitX=1;exitY=0.5;exitDx=0;exitDy=0;entryX=1;entryY=0.5;entryDx=0;entryDy=0;" edge="1" parent="1" source="T1-C6O5CW9eP6GTpHd8Y-130" target="T1-C6O5CW9eP6GTpHd8Y-102">
          <mxGeometry width="50" height="50" relative="1" as="geometry">
            <mxPoint x="910" y="950" as="sourcePoint" />
            <mxPoint x="1090" y="90" as="targetPoint" />
            <Array as="points">
              <mxPoint x="1090" y="880" />
              <mxPoint x="1090" y="90" />
            </Array>
          </mxGeometry>
        </mxCell>
        <mxCell id="T1-C6O5CW9eP6GTpHd8Y-147" value="нет" style="text;html=1;strokeColor=none;fillColor=none;align=center;verticalAlign=middle;whiteSpace=wrap;rounded=0;" vertex="1" parent="1">
          <mxGeometry x="740" y="290" width="60" height="30" as="geometry" />
        </mxCell>
        <mxCell id="T1-C6O5CW9eP6GTpHd8Y-148" value="нет" style="text;html=1;strokeColor=none;fillColor=none;align=center;verticalAlign=middle;whiteSpace=wrap;rounded=0;" vertex="1" parent="1">
          <mxGeometry x="740" y="420" width="60" height="30" as="geometry" />
        </mxCell>
        <mxCell id="T1-C6O5CW9eP6GTpHd8Y-149" value="нет" style="text;html=1;strokeColor=none;fillColor=none;align=center;verticalAlign=middle;whiteSpace=wrap;rounded=0;" vertex="1" parent="1">
          <mxGeometry x="740" y="550" width="60" height="30" as="geometry" />
        </mxCell>
        <mxCell id="T1-C6O5CW9eP6GTpHd8Y-150" value="нет" style="text;html=1;strokeColor=none;fillColor=none;align=center;verticalAlign=middle;whiteSpace=wrap;rounded=0;" vertex="1" parent="1">
          <mxGeometry x="740" y="670" width="60" height="30" as="geometry" />
        </mxCell>
        <mxCell id="T1-C6O5CW9eP6GTpHd8Y-151" value="нет" style="text;html=1;strokeColor=none;fillColor=none;align=center;verticalAlign=middle;whiteSpace=wrap;rounded=0;" vertex="1" parent="1">
          <mxGeometry x="740" y="790" width="60" height="30" as="geometry" />
        </mxCell>
        <mxCell id="T1-C6O5CW9eP6GTpHd8Y-152" value="нет" style="text;html=1;strokeColor=none;fillColor=none;align=center;verticalAlign=middle;whiteSpace=wrap;rounded=0;" vertex="1" parent="1">
          <mxGeometry x="850" y="850" width="60" height="30" as="geometry" />
        </mxCell>
        <mxCell id="T1-C6O5CW9eP6GTpHd8Y-153" value="да" style="text;html=1;strokeColor=none;fillColor=none;align=center;verticalAlign=middle;whiteSpace=wrap;rounded=0;" vertex="1" parent="1">
          <mxGeometry x="750" y="930" width="60" height="30" as="geometry" />
        </mxCell>
        <mxCell id="T1-C6O5CW9eP6GTpHd8Y-154" value="да" style="text;html=1;strokeColor=none;fillColor=none;align=center;verticalAlign=middle;whiteSpace=wrap;rounded=0;" vertex="1" parent="1">
          <mxGeometry x="840" y="720" width="60" height="30" as="geometry" />
        </mxCell>
        <mxCell id="T1-C6O5CW9eP6GTpHd8Y-155" value="да" style="text;html=1;strokeColor=none;fillColor=none;align=center;verticalAlign=middle;whiteSpace=wrap;rounded=0;" vertex="1" parent="1">
          <mxGeometry x="830" y="600" width="60" height="30" as="geometry" />
        </mxCell>
        <mxCell id="T1-C6O5CW9eP6GTpHd8Y-156" value="да" style="text;html=1;strokeColor=none;fillColor=none;align=center;verticalAlign=middle;whiteSpace=wrap;rounded=0;" vertex="1" parent="1">
          <mxGeometry x="830" y="480" width="60" height="30" as="geometry" />
        </mxCell>
        <mxCell id="T1-C6O5CW9eP6GTpHd8Y-157" value="да" style="text;html=1;strokeColor=none;fillColor=none;align=center;verticalAlign=middle;whiteSpace=wrap;rounded=0;" vertex="1" parent="1">
          <mxGeometry x="830" y="342" width="60" height="30" as="geometry" />
        </mxCell>
        <mxCell id="T1-C6O5CW9eP6GTpHd8Y-158" value="да" style="text;html=1;strokeColor=none;fillColor=none;align=center;verticalAlign=middle;whiteSpace=wrap;rounded=0;" vertex="1" parent="1">
          <mxGeometry x="830" y="225" width="60" height="30" as="geometry" />
        </mxCell>
        <mxCell id="T1-C6O5CW9eP6GTpHd8Y-159" value="Прослушивание трека из плейлиста" style="rounded=1;whiteSpace=wrap;html=1;" vertex="1" parent="1">
          <mxGeometry x="50" y="1380" width="130" height="60" as="geometry" />
        </mxCell>
        <mxCell id="T1-C6O5CW9eP6GTpHd8Y-160" value="Выбрать плейлист" style="rounded=1;whiteSpace=wrap;html=1;" vertex="1" parent="1">
          <mxGeometry x="220" y="1380" width="140" height="60" as="geometry" />
        </mxCell>
        <mxCell id="T1-C6O5CW9eP6GTpHd8Y-161" value="Добавить трек в избранное?" style="rhombus;whiteSpace=wrap;html=1;" vertex="1" parent="1">
          <mxGeometry x="560" y="1362.5" width="120" height="95" as="geometry" />
        </mxCell>
        <mxCell id="T1-C6O5CW9eP6GTpHd8Y-163" value="Добавление трека в избранное" style="rounded=1;whiteSpace=wrap;html=1;" vertex="1" parent="1">
          <mxGeometry x="560" y="1275" width="120" height="60" as="geometry" />
        </mxCell>
        <mxCell id="T1-C6O5CW9eP6GTpHd8Y-164" value="Прослушивание трека из плейлиста" style="rounded=1;whiteSpace=wrap;html=1;" vertex="1" parent="1">
          <mxGeometry x="720" y="1380" width="160" height="60" as="geometry" />
        </mxCell>
        <mxCell id="T1-C6O5CW9eP6GTpHd8Y-165" value="" style="endArrow=classic;html=1;rounded=0;exitX=1;exitY=0.5;exitDx=0;exitDy=0;entryX=0;entryY=0.5;entryDx=0;entryDy=0;" edge="1" parent="1" source="T1-C6O5CW9eP6GTpHd8Y-159" target="T1-C6O5CW9eP6GTpHd8Y-160">
          <mxGeometry width="50" height="50" relative="1" as="geometry">
            <mxPoint x="170" y="1520" as="sourcePoint" />
            <mxPoint x="220" y="1470" as="targetPoint" />
          </mxGeometry>
        </mxCell>
        <mxCell id="T1-C6O5CW9eP6GTpHd8Y-167" value="" style="endArrow=classic;html=1;rounded=0;exitX=0.5;exitY=0;exitDx=0;exitDy=0;entryX=0.5;entryY=1;entryDx=0;entryDy=0;" edge="1" parent="1" source="T1-C6O5CW9eP6GTpHd8Y-161" target="T1-C6O5CW9eP6GTpHd8Y-163">
          <mxGeometry width="50" height="50" relative="1" as="geometry">
            <mxPoint x="280" y="1360" as="sourcePoint" />
            <mxPoint x="330" y="1310" as="targetPoint" />
          </mxGeometry>
        </mxCell>
        <mxCell id="T1-C6O5CW9eP6GTpHd8Y-168" value="" style="endArrow=classic;html=1;rounded=0;exitX=1;exitY=0.5;exitDx=0;exitDy=0;entryX=0;entryY=0.5;entryDx=0;entryDy=0;" edge="1" parent="1" source="T1-C6O5CW9eP6GTpHd8Y-161" target="T1-C6O5CW9eP6GTpHd8Y-164">
          <mxGeometry width="50" height="50" relative="1" as="geometry">
            <mxPoint x="550" y="1500" as="sourcePoint" />
            <mxPoint x="600" y="1450" as="targetPoint" />
          </mxGeometry>
        </mxCell>
        <mxCell id="T1-C6O5CW9eP6GTpHd8Y-170" value="да" style="text;html=1;strokeColor=none;fillColor=none;align=center;verticalAlign=middle;whiteSpace=wrap;rounded=0;" vertex="1" parent="1">
          <mxGeometry x="577.5" y="1335" width="60" height="30" as="geometry" />
        </mxCell>
        <mxCell id="T1-C6O5CW9eP6GTpHd8Y-171" value="нет" style="text;html=1;strokeColor=none;fillColor=none;align=center;verticalAlign=middle;whiteSpace=wrap;rounded=0;" vertex="1" parent="1">
          <mxGeometry x="660" y="1380" width="60" height="30" as="geometry" />
        </mxCell>
        <mxCell id="T1-C6O5CW9eP6GTpHd8Y-173" value="Прослушивание трека из избранного&amp;nbsp;" style="rounded=1;whiteSpace=wrap;html=1;" vertex="1" parent="1">
          <mxGeometry x="55" y="1590" width="125" height="60" as="geometry" />
        </mxCell>
        <mxCell id="T1-C6O5CW9eP6GTpHd8Y-174" value="Выбор трека" style="rounded=1;whiteSpace=wrap;html=1;" vertex="1" parent="1">
          <mxGeometry x="400" y="1380" width="120" height="60" as="geometry" />
        </mxCell>
        <mxCell id="T1-C6O5CW9eP6GTpHd8Y-175" value="" style="endArrow=classic;html=1;rounded=0;exitX=1;exitY=0.5;exitDx=0;exitDy=0;entryX=0;entryY=0.5;entryDx=0;entryDy=0;" edge="1" parent="1" source="T1-C6O5CW9eP6GTpHd8Y-160" target="T1-C6O5CW9eP6GTpHd8Y-174">
          <mxGeometry width="50" height="50" relative="1" as="geometry">
            <mxPoint x="440" y="1580" as="sourcePoint" />
            <mxPoint x="490" y="1530" as="targetPoint" />
          </mxGeometry>
        </mxCell>
        <mxCell id="T1-C6O5CW9eP6GTpHd8Y-176" value="" style="endArrow=classic;html=1;rounded=0;exitX=1;exitY=0.5;exitDx=0;exitDy=0;entryX=0;entryY=0.5;entryDx=0;entryDy=0;" edge="1" parent="1" source="T1-C6O5CW9eP6GTpHd8Y-174" target="T1-C6O5CW9eP6GTpHd8Y-161">
          <mxGeometry width="50" height="50" relative="1" as="geometry">
            <mxPoint x="480" y="1590" as="sourcePoint" />
            <mxPoint x="530" y="1540" as="targetPoint" />
          </mxGeometry>
        </mxCell>
        <mxCell id="T1-C6O5CW9eP6GTpHd8Y-177" value="" style="endArrow=classic;html=1;rounded=0;exitX=1;exitY=0.5;exitDx=0;exitDy=0;entryX=0.5;entryY=0;entryDx=0;entryDy=0;" edge="1" parent="1" source="T1-C6O5CW9eP6GTpHd8Y-163" target="T1-C6O5CW9eP6GTpHd8Y-164">
          <mxGeometry width="50" height="50" relative="1" as="geometry">
            <mxPoint x="710" y="1370" as="sourcePoint" />
            <mxPoint x="760" y="1320" as="targetPoint" />
            <Array as="points">
              <mxPoint x="800" y="1305" />
            </Array>
          </mxGeometry>
        </mxCell>
        <mxCell id="T1-C6O5CW9eP6GTpHd8Y-178" value="Выбор трека" style="rounded=1;whiteSpace=wrap;html=1;" vertex="1" parent="1">
          <mxGeometry x="220" y="1590" width="120" height="60" as="geometry" />
        </mxCell>
        <mxCell id="T1-C6O5CW9eP6GTpHd8Y-179" value="Добавить трек в плейлист?" style="rhombus;whiteSpace=wrap;html=1;" vertex="1" parent="1">
          <mxGeometry x="375" y="1570" width="145" height="100" as="geometry" />
        </mxCell>
        <mxCell id="T1-C6O5CW9eP6GTpHd8Y-180" value="Прослушивание трек из избранного" style="rounded=1;whiteSpace=wrap;html=1;" vertex="1" parent="1">
          <mxGeometry x="630" y="1590" width="170" height="60" as="geometry" />
        </mxCell>
        <mxCell id="T1-C6O5CW9eP6GTpHd8Y-181" value="Выбрать или создать плейлист" style="rounded=1;whiteSpace=wrap;html=1;" vertex="1" parent="1">
          <mxGeometry x="387.5" y="1710" width="120" height="60" as="geometry" />
        </mxCell>
        <mxCell id="T1-C6O5CW9eP6GTpHd8Y-182" value="Добавить трек в выбранный плейлист" style="rounded=1;whiteSpace=wrap;html=1;" vertex="1" parent="1">
          <mxGeometry x="560" y="1710" width="130" height="60" as="geometry" />
        </mxCell>
        <mxCell id="T1-C6O5CW9eP6GTpHd8Y-183" value="" style="endArrow=classic;html=1;rounded=0;exitX=1;exitY=0.5;exitDx=0;exitDy=0;entryX=0;entryY=0.5;entryDx=0;entryDy=0;" edge="1" parent="1" source="T1-C6O5CW9eP6GTpHd8Y-173" target="T1-C6O5CW9eP6GTpHd8Y-178">
          <mxGeometry width="50" height="50" relative="1" as="geometry">
            <mxPoint x="160" y="1740" as="sourcePoint" />
            <mxPoint x="210" y="1690" as="targetPoint" />
          </mxGeometry>
        </mxCell>
        <mxCell id="T1-C6O5CW9eP6GTpHd8Y-184" value="" style="endArrow=classic;html=1;rounded=0;exitX=1;exitY=0.5;exitDx=0;exitDy=0;entryX=0;entryY=0.5;entryDx=0;entryDy=0;" edge="1" parent="1" source="T1-C6O5CW9eP6GTpHd8Y-178" target="T1-C6O5CW9eP6GTpHd8Y-179">
          <mxGeometry width="50" height="50" relative="1" as="geometry">
            <mxPoint x="330" y="1740" as="sourcePoint" />
            <mxPoint x="380" y="1690" as="targetPoint" />
          </mxGeometry>
        </mxCell>
        <mxCell id="T1-C6O5CW9eP6GTpHd8Y-185" value="" style="endArrow=classic;html=1;rounded=0;exitX=1;exitY=0.5;exitDx=0;exitDy=0;entryX=0;entryY=0.5;entryDx=0;entryDy=0;" edge="1" parent="1" source="T1-C6O5CW9eP6GTpHd8Y-179" target="T1-C6O5CW9eP6GTpHd8Y-180">
          <mxGeometry width="50" height="50" relative="1" as="geometry">
            <mxPoint x="560" y="1690" as="sourcePoint" />
            <mxPoint x="610" y="1640" as="targetPoint" />
          </mxGeometry>
        </mxCell>
        <mxCell id="T1-C6O5CW9eP6GTpHd8Y-186" value="" style="endArrow=classic;html=1;rounded=0;exitX=0.5;exitY=1;exitDx=0;exitDy=0;entryX=0.5;entryY=0;entryDx=0;entryDy=0;" edge="1" parent="1" source="T1-C6O5CW9eP6GTpHd8Y-179" target="T1-C6O5CW9eP6GTpHd8Y-181">
          <mxGeometry width="50" height="50" relative="1" as="geometry">
            <mxPoint x="310" y="1720" as="sourcePoint" />
            <mxPoint x="360" y="1670" as="targetPoint" />
          </mxGeometry>
        </mxCell>
        <mxCell id="T1-C6O5CW9eP6GTpHd8Y-187" value="" style="endArrow=classic;html=1;rounded=0;exitX=1;exitY=0.5;exitDx=0;exitDy=0;entryX=0;entryY=0.5;entryDx=0;entryDy=0;" edge="1" parent="1" source="T1-C6O5CW9eP6GTpHd8Y-181" target="T1-C6O5CW9eP6GTpHd8Y-182">
          <mxGeometry width="50" height="50" relative="1" as="geometry">
            <mxPoint x="470" y="1840" as="sourcePoint" />
            <mxPoint x="520" y="1790" as="targetPoint" />
          </mxGeometry>
        </mxCell>
        <mxCell id="T1-C6O5CW9eP6GTpHd8Y-188" value="" style="endArrow=classic;html=1;rounded=0;exitX=1;exitY=0.5;exitDx=0;exitDy=0;entryX=0.5;entryY=1;entryDx=0;entryDy=0;" edge="1" parent="1" source="T1-C6O5CW9eP6GTpHd8Y-182" target="T1-C6O5CW9eP6GTpHd8Y-180">
          <mxGeometry width="50" height="50" relative="1" as="geometry">
            <mxPoint x="800" y="1790" as="sourcePoint" />
            <mxPoint x="850" y="1740" as="targetPoint" />
            <Array as="points">
              <mxPoint x="715" y="1740" />
            </Array>
          </mxGeometry>
        </mxCell>
        <mxCell id="T1-C6O5CW9eP6GTpHd8Y-189" value="нет" style="text;html=1;strokeColor=none;fillColor=none;align=center;verticalAlign=middle;whiteSpace=wrap;rounded=0;" vertex="1" parent="1">
          <mxGeometry x="515" y="1590" width="60" height="30" as="geometry" />
        </mxCell>
        <mxCell id="T1-C6O5CW9eP6GTpHd8Y-190" value="да" style="text;html=1;strokeColor=none;fillColor=none;align=center;verticalAlign=middle;whiteSpace=wrap;rounded=0;" vertex="1" parent="1">
          <mxGeometry x="430" y="1670" width="60" height="30" as="geometry" />
        </mxCell>
        <mxCell id="T1-C6O5CW9eP6GTpHd8Y-192" value="Прослушивание трека из поиска" style="rounded=1;whiteSpace=wrap;html=1;" vertex="1" parent="1">
          <mxGeometry x="60" y="1870" width="150" height="60" as="geometry" />
        </mxCell>
        <mxCell id="T1-C6O5CW9eP6GTpHd8Y-193" value="выбрать трека" style="rounded=1;whiteSpace=wrap;html=1;" vertex="1" parent="1">
          <mxGeometry x="240" y="1870" width="120" height="60" as="geometry" />
        </mxCell>
        <mxCell id="T1-C6O5CW9eP6GTpHd8Y-194" value="Добавит трек в избранное?" style="rhombus;whiteSpace=wrap;html=1;" vertex="1" parent="1">
          <mxGeometry x="398" y="1845" width="140" height="110" as="geometry" />
        </mxCell>
        <mxCell id="T1-C6O5CW9eP6GTpHd8Y-195" value="Добавление трека в избранное" style="rounded=1;whiteSpace=wrap;html=1;" vertex="1" parent="1">
          <mxGeometry x="398" y="1990" width="140" height="60" as="geometry" />
        </mxCell>
        <mxCell id="T1-C6O5CW9eP6GTpHd8Y-196" value="Добавить трек в&lt;br&gt;&amp;nbsp;плейлист?" style="rhombus;whiteSpace=wrap;html=1;" vertex="1" parent="1">
          <mxGeometry x="600" y="1845" width="160" height="110" as="geometry" />
        </mxCell>
        <mxCell id="T1-C6O5CW9eP6GTpHd8Y-197" value="Выбрать или создать плейлиста" style="rounded=1;whiteSpace=wrap;html=1;" vertex="1" parent="1">
          <mxGeometry x="610" y="1990" width="140" height="60" as="geometry" />
        </mxCell>
        <mxCell id="T1-C6O5CW9eP6GTpHd8Y-198" value="Добавить трек в плейлист" style="rounded=1;whiteSpace=wrap;html=1;" vertex="1" parent="1">
          <mxGeometry x="790" y="1990" width="160" height="60" as="geometry" />
        </mxCell>
        <mxCell id="T1-C6O5CW9eP6GTpHd8Y-199" style="edgeStyle=orthogonalEdgeStyle;rounded=0;orthogonalLoop=1;jettySize=auto;html=1;exitX=0.5;exitY=1;exitDx=0;exitDy=0;" edge="1" parent="1" source="T1-C6O5CW9eP6GTpHd8Y-197" target="T1-C6O5CW9eP6GTpHd8Y-197">
          <mxGeometry relative="1" as="geometry" />
        </mxCell>
        <mxCell id="T1-C6O5CW9eP6GTpHd8Y-200" value="Прослушивание&amp;nbsp; река из поиска" style="rounded=1;whiteSpace=wrap;html=1;" vertex="1" parent="1">
          <mxGeometry x="882.5" y="1870" width="175" height="60" as="geometry" />
        </mxCell>
        <mxCell id="T1-C6O5CW9eP6GTpHd8Y-201" value="" style="endArrow=classic;html=1;rounded=0;exitX=1;exitY=0.5;exitDx=0;exitDy=0;entryX=0;entryY=0.5;entryDx=0;entryDy=0;" edge="1" parent="1" source="T1-C6O5CW9eP6GTpHd8Y-192" target="T1-C6O5CW9eP6GTpHd8Y-193">
          <mxGeometry width="50" height="50" relative="1" as="geometry">
            <mxPoint x="210" y="2020" as="sourcePoint" />
            <mxPoint x="260" y="1970" as="targetPoint" />
          </mxGeometry>
        </mxCell>
        <mxCell id="T1-C6O5CW9eP6GTpHd8Y-202" value="" style="endArrow=classic;html=1;rounded=0;exitX=1;exitY=0.5;exitDx=0;exitDy=0;entryX=0;entryY=0.5;entryDx=0;entryDy=0;" edge="1" parent="1" source="T1-C6O5CW9eP6GTpHd8Y-193" target="T1-C6O5CW9eP6GTpHd8Y-194">
          <mxGeometry width="50" height="50" relative="1" as="geometry">
            <mxPoint x="350" y="2010" as="sourcePoint" />
            <mxPoint x="400" y="1960" as="targetPoint" />
          </mxGeometry>
        </mxCell>
        <mxCell id="T1-C6O5CW9eP6GTpHd8Y-203" value="" style="endArrow=classic;html=1;rounded=0;exitX=0.5;exitY=1;exitDx=0;exitDy=0;entryX=0.5;entryY=0;entryDx=0;entryDy=0;" edge="1" parent="1" source="T1-C6O5CW9eP6GTpHd8Y-194" target="T1-C6O5CW9eP6GTpHd8Y-195">
          <mxGeometry width="50" height="50" relative="1" as="geometry">
            <mxPoint x="510" y="1990" as="sourcePoint" />
            <mxPoint x="560" y="1940" as="targetPoint" />
          </mxGeometry>
        </mxCell>
        <mxCell id="T1-C6O5CW9eP6GTpHd8Y-204" value="" style="endArrow=classic;html=1;rounded=0;exitX=1;exitY=0.5;exitDx=0;exitDy=0;entryX=0;entryY=0.5;entryDx=0;entryDy=0;" edge="1" parent="1" source="T1-C6O5CW9eP6GTpHd8Y-194" target="T1-C6O5CW9eP6GTpHd8Y-196">
          <mxGeometry width="50" height="50" relative="1" as="geometry">
            <mxPoint x="540" y="1970" as="sourcePoint" />
            <mxPoint x="590" y="1920" as="targetPoint" />
          </mxGeometry>
        </mxCell>
        <mxCell id="T1-C6O5CW9eP6GTpHd8Y-205" value="" style="endArrow=classic;html=1;rounded=0;exitX=1;exitY=0.5;exitDx=0;exitDy=0;entryX=0;entryY=0.5;entryDx=0;entryDy=0;" edge="1" parent="1" source="T1-C6O5CW9eP6GTpHd8Y-195" target="T1-C6O5CW9eP6GTpHd8Y-196">
          <mxGeometry width="50" height="50" relative="1" as="geometry">
            <mxPoint x="550" y="2000" as="sourcePoint" />
            <mxPoint x="600" y="1950" as="targetPoint" />
            <Array as="points">
              <mxPoint x="600" y="2020" />
            </Array>
          </mxGeometry>
        </mxCell>
        <mxCell id="T1-C6O5CW9eP6GTpHd8Y-206" value="" style="endArrow=classic;html=1;rounded=0;exitX=1;exitY=0.5;exitDx=0;exitDy=0;entryX=0;entryY=0.5;entryDx=0;entryDy=0;" edge="1" parent="1" source="T1-C6O5CW9eP6GTpHd8Y-196" target="T1-C6O5CW9eP6GTpHd8Y-200">
          <mxGeometry width="50" height="50" relative="1" as="geometry">
            <mxPoint x="760" y="1970" as="sourcePoint" />
            <mxPoint x="810" y="1920" as="targetPoint" />
          </mxGeometry>
        </mxCell>
        <mxCell id="T1-C6O5CW9eP6GTpHd8Y-207" value="" style="endArrow=classic;html=1;rounded=0;exitX=0.5;exitY=1;exitDx=0;exitDy=0;entryX=0.5;entryY=0;entryDx=0;entryDy=0;" edge="1" parent="1" source="T1-C6O5CW9eP6GTpHd8Y-196" target="T1-C6O5CW9eP6GTpHd8Y-197">
          <mxGeometry width="50" height="50" relative="1" as="geometry">
            <mxPoint x="700" y="2000" as="sourcePoint" />
            <mxPoint x="750" y="1950" as="targetPoint" />
          </mxGeometry>
        </mxCell>
        <mxCell id="T1-C6O5CW9eP6GTpHd8Y-208" value="" style="endArrow=classic;html=1;rounded=0;exitX=1;exitY=0.5;exitDx=0;exitDy=0;entryX=0;entryY=0.5;entryDx=0;entryDy=0;" edge="1" parent="1" source="T1-C6O5CW9eP6GTpHd8Y-197" target="T1-C6O5CW9eP6GTpHd8Y-198">
          <mxGeometry width="50" height="50" relative="1" as="geometry">
            <mxPoint x="740" y="1990" as="sourcePoint" />
            <mxPoint x="790" y="1940" as="targetPoint" />
          </mxGeometry>
        </mxCell>
        <mxCell id="T1-C6O5CW9eP6GTpHd8Y-209" value="" style="endArrow=classic;html=1;rounded=0;exitX=1;exitY=0.5;exitDx=0;exitDy=0;entryX=0.5;entryY=1;entryDx=0;entryDy=0;" edge="1" parent="1" source="T1-C6O5CW9eP6GTpHd8Y-198" target="T1-C6O5CW9eP6GTpHd8Y-200">
          <mxGeometry width="50" height="50" relative="1" as="geometry">
            <mxPoint x="1000" y="2020" as="sourcePoint" />
            <mxPoint x="1050" y="1970" as="targetPoint" />
            <Array as="points">
              <mxPoint x="970" y="2020" />
            </Array>
          </mxGeometry>
        </mxCell>
        <mxCell id="T1-C6O5CW9eP6GTpHd8Y-210" value="нет" style="text;html=1;strokeColor=none;fillColor=none;align=center;verticalAlign=middle;whiteSpace=wrap;rounded=0;" vertex="1" parent="1">
          <mxGeometry x="531" y="1870" width="60" height="30" as="geometry" />
        </mxCell>
        <mxCell id="T1-C6O5CW9eP6GTpHd8Y-211" value="да" style="text;html=1;strokeColor=none;fillColor=none;align=center;verticalAlign=middle;whiteSpace=wrap;rounded=0;" vertex="1" parent="1">
          <mxGeometry x="455" y="1950" width="60" height="30" as="geometry" />
        </mxCell>
        <mxCell id="T1-C6O5CW9eP6GTpHd8Y-212" value="да" style="text;html=1;strokeColor=none;fillColor=none;align=center;verticalAlign=middle;whiteSpace=wrap;rounded=0;" vertex="1" parent="1">
          <mxGeometry x="665" y="1950" width="60" height="30" as="geometry" />
        </mxCell>
        <mxCell id="T1-C6O5CW9eP6GTpHd8Y-213" value="нет" style="text;html=1;strokeColor=none;fillColor=none;align=center;verticalAlign=middle;whiteSpace=wrap;rounded=0;" vertex="1" parent="1">
          <mxGeometry x="760" y="1870" width="60" height="30" as="geometry" />
        </mxCell>
        <mxCell id="T1-C6O5CW9eP6GTpHd8Y-215" value="Поделиться прилоением" style="rounded=1;whiteSpace=wrap;html=1;" vertex="1" parent="1">
          <mxGeometry x="100" y="2160" width="170" height="60" as="geometry" />
        </mxCell>
        <mxCell id="T1-C6O5CW9eP6GTpHd8Y-216" value="Получить ссылку для друга" style="rounded=1;whiteSpace=wrap;html=1;" vertex="1" parent="1">
          <mxGeometry x="320" y="2160" width="160" height="60" as="geometry" />
        </mxCell>
        <mxCell id="T1-C6O5CW9eP6GTpHd8Y-217" value="поделиться приложением" style="rounded=1;whiteSpace=wrap;html=1;" vertex="1" parent="1">
          <mxGeometry x="520" y="2160" width="170" height="60" as="geometry" />
        </mxCell>
        <mxCell id="T1-C6O5CW9eP6GTpHd8Y-218" value="" style="endArrow=classic;html=1;rounded=0;exitX=1;exitY=0.5;exitDx=0;exitDy=0;entryX=0;entryY=0.5;entryDx=0;entryDy=0;" edge="1" parent="1" source="T1-C6O5CW9eP6GTpHd8Y-215" target="T1-C6O5CW9eP6GTpHd8Y-216">
          <mxGeometry width="50" height="50" relative="1" as="geometry">
            <mxPoint x="300" y="2280" as="sourcePoint" />
            <mxPoint x="350" y="2230" as="targetPoint" />
          </mxGeometry>
        </mxCell>
        <mxCell id="T1-C6O5CW9eP6GTpHd8Y-219" value="" style="endArrow=classic;html=1;rounded=0;exitX=1;exitY=0.5;exitDx=0;exitDy=0;entryX=0;entryY=0.5;entryDx=0;entryDy=0;" edge="1" parent="1" source="T1-C6O5CW9eP6GTpHd8Y-216" target="T1-C6O5CW9eP6GTpHd8Y-217">
          <mxGeometry width="50" height="50" relative="1" as="geometry">
            <mxPoint x="500" y="2290" as="sourcePoint" />
            <mxPoint x="550" y="2240" as="targetPoint" />
          </mxGeometry>
        </mxCell>
        <mxCell id="T1-C6O5CW9eP6GTpHd8Y-221" value="Письмо в тех. поддержку" style="rounded=1;whiteSpace=wrap;html=1;" vertex="1" parent="1">
          <mxGeometry x="90" y="2320" width="150" height="60" as="geometry" />
        </mxCell>
        <mxCell id="T1-C6O5CW9eP6GTpHd8Y-222" value="Отправка письма в тех. поддержку" style="rounded=1;whiteSpace=wrap;html=1;" vertex="1" parent="1">
          <mxGeometry x="278" y="2320" width="152" height="60" as="geometry" />
        </mxCell>
        <mxCell id="T1-C6O5CW9eP6GTpHd8Y-223" value="" style="shape=collate;html=1;" vertex="1" parent="1">
          <mxGeometry x="479" y="2320" width="59" height="60" as="geometry" />
        </mxCell>
        <mxCell id="T1-C6O5CW9eP6GTpHd8Y-224" value="Получение ответа от тех. поддержки" style="rounded=1;whiteSpace=wrap;html=1;" vertex="1" parent="1">
          <mxGeometry x="575" y="2320" width="135" height="60" as="geometry" />
        </mxCell>
        <mxCell id="T1-C6O5CW9eP6GTpHd8Y-225" value="Устроил ответ?" style="rhombus;whiteSpace=wrap;html=1;" vertex="1" parent="1">
          <mxGeometry x="750" y="2305" width="130" height="90" as="geometry" />
        </mxCell>
        <mxCell id="T1-C6O5CW9eP6GTpHd8Y-226" value="Письмо в тех. поддержку" style="rounded=1;whiteSpace=wrap;html=1;" vertex="1" parent="1">
          <mxGeometry x="920" y="2320" width="150" height="60" as="geometry" />
        </mxCell>
        <mxCell id="T1-C6O5CW9eP6GTpHd8Y-227" value="" style="endArrow=classic;html=1;rounded=0;exitX=1;exitY=0.5;exitDx=0;exitDy=0;entryX=0;entryY=0.5;entryDx=0;entryDy=0;" edge="1" parent="1" source="T1-C6O5CW9eP6GTpHd8Y-221" target="T1-C6O5CW9eP6GTpHd8Y-222">
          <mxGeometry width="50" height="50" relative="1" as="geometry">
            <mxPoint x="230" y="2460" as="sourcePoint" />
            <mxPoint x="280" y="2410" as="targetPoint" />
          </mxGeometry>
        </mxCell>
        <mxCell id="T1-C6O5CW9eP6GTpHd8Y-228" value="" style="endArrow=classic;html=1;rounded=0;exitX=1;exitY=0.5;exitDx=0;exitDy=0;entryX=0;entryY=0.5;entryDx=0;entryDy=0;" edge="1" parent="1" source="T1-C6O5CW9eP6GTpHd8Y-222" target="T1-C6O5CW9eP6GTpHd8Y-223">
          <mxGeometry width="50" height="50" relative="1" as="geometry">
            <mxPoint x="460" y="2470" as="sourcePoint" />
            <mxPoint x="510" y="2420" as="targetPoint" />
          </mxGeometry>
        </mxCell>
        <mxCell id="T1-C6O5CW9eP6GTpHd8Y-229" value="" style="endArrow=classic;html=1;rounded=0;exitX=1;exitY=0.5;exitDx=0;exitDy=0;entryX=0;entryY=0.5;entryDx=0;entryDy=0;" edge="1" parent="1" source="T1-C6O5CW9eP6GTpHd8Y-223" target="T1-C6O5CW9eP6GTpHd8Y-224">
          <mxGeometry width="50" height="50" relative="1" as="geometry">
            <mxPoint x="540" y="2470" as="sourcePoint" />
            <mxPoint x="590" y="2420" as="targetPoint" />
          </mxGeometry>
        </mxCell>
        <mxCell id="T1-C6O5CW9eP6GTpHd8Y-230" value="" style="endArrow=classic;html=1;rounded=0;exitX=1;exitY=0.5;exitDx=0;exitDy=0;entryX=0;entryY=0.5;entryDx=0;entryDy=0;" edge="1" parent="1" source="T1-C6O5CW9eP6GTpHd8Y-224" target="T1-C6O5CW9eP6GTpHd8Y-225">
          <mxGeometry width="50" height="50" relative="1" as="geometry">
            <mxPoint x="750" y="2460" as="sourcePoint" />
            <mxPoint x="800" y="2410" as="targetPoint" />
          </mxGeometry>
        </mxCell>
        <mxCell id="T1-C6O5CW9eP6GTpHd8Y-231" value="" style="endArrow=classic;html=1;rounded=0;exitX=1;exitY=0.5;exitDx=0;exitDy=0;entryX=0;entryY=0.5;entryDx=0;entryDy=0;" edge="1" parent="1" source="T1-C6O5CW9eP6GTpHd8Y-225" target="T1-C6O5CW9eP6GTpHd8Y-226">
          <mxGeometry width="50" height="50" relative="1" as="geometry">
            <mxPoint x="980" y="2470" as="sourcePoint" />
            <mxPoint x="1030" y="2420" as="targetPoint" />
          </mxGeometry>
        </mxCell>
        <mxCell id="T1-C6O5CW9eP6GTpHd8Y-232" value="" style="endArrow=classic;html=1;rounded=0;exitX=0.5;exitY=1;exitDx=0;exitDy=0;entryX=0.5;entryY=1;entryDx=0;entryDy=0;" edge="1" parent="1" source="T1-C6O5CW9eP6GTpHd8Y-225" target="T1-C6O5CW9eP6GTpHd8Y-222">
          <mxGeometry width="50" height="50" relative="1" as="geometry">
            <mxPoint x="750" y="2480" as="sourcePoint" />
            <mxPoint x="800" y="2430" as="targetPoint" />
            <Array as="points">
              <mxPoint x="815" y="2470" />
              <mxPoint x="354" y="2470" />
            </Array>
          </mxGeometry>
        </mxCell>
        <mxCell id="T1-C6O5CW9eP6GTpHd8Y-233" value="Максимальное ожидание ответа примерно 2 часа" style="text;html=1;strokeColor=none;fillColor=none;align=center;verticalAlign=middle;whiteSpace=wrap;rounded=0;" vertex="1" parent="1">
          <mxGeometry x="445" y="2390" width="140" height="30" as="geometry" />
        </mxCell>
        <mxCell id="T1-C6O5CW9eP6GTpHd8Y-234" value="да" style="text;html=1;strokeColor=none;fillColor=none;align=center;verticalAlign=middle;whiteSpace=wrap;rounded=0;" vertex="1" parent="1">
          <mxGeometry x="870" y="2320" width="60" height="30" as="geometry" />
        </mxCell>
        <mxCell id="T1-C6O5CW9eP6GTpHd8Y-235" value="нет" style="text;html=1;strokeColor=none;fillColor=none;align=center;verticalAlign=middle;whiteSpace=wrap;rounded=0;" vertex="1" parent="1">
          <mxGeometry x="770" y="2395" width="60" height="30" as="geometry" />
        </mxCell>
      </root>
    </mxGraphModel>
  </diagram>
</mxfile>
